<?xml version="1.0" encoding="UTF-8"?>
<!-- Generator: Adobe Illustrator 22.0.0, SVG Export Plug-In . SVG Version: 6.00 Build 0)  -->
<svg version="1.1" id="Layer_1" xmlns="http://www.w3.org/2000/svg" xmlns:xlink="http://www.w3.org/1999/xlink" x="0px" y="0px" viewBox="0 0 370 32" style="enable-background:new 0 0 370 32;" xml:space="preserve">
<style type="text/css">
	.st0{fill:#555656;}
	.st1{fill:none;stroke:#555656;stroke-width:0.5;stroke-miterlimit:10;}
</style>
<g>
	<g>
		<path class="st0" d="M18.4,21.1l0.1,0.1c0,0.5,0.1,1,0,1.5c0.5-0.2,1-0.1,1.5-0.2c-0.1,0-0.2-0.1-0.3-0.2c-0.3,0-0.4-0.3-0.5-0.5    c0-0.2,0.1-0.3,0.1-0.5c-0.1-0.3-0.5-0.1-0.7-0.2C18.5,21.2,18.5,21.1,18.4,21.1 M11.3,20.6L11.3,20.6L10,22    c1.9,1.7,4.1,2.8,6.6,3.1c0.4,0.1,0.8,0,1.2,0.2l-0.1-0.1v-1.7l0.1-0.1l-0.2,0.1C15.2,23.2,13.1,22.3,11.3,20.6z M25.1,20.7l0-0.2    c-0.2,0.4-0.5,0.5-0.8,0.8c-0.4,0.4-1.1,0.5-1.3,1.1c-0.2,0.2-0.3,0.5-0.6,0.6c-0.1,0.3-0.4,0.3-0.6,0.5c-0.5,0.5-0.9-0.3-1.3-0.4    l-1,0.2c-0.3,0-0.7,0.1-1,0c0,0.6,0,1.3,0,1.9l0.1-0.1c3-0.1,5.6-1.3,7.8-3.3L25.1,20.7z M13.6,19.5c0,0.2,0.2,0.2,0.2,0.4    c-0.1,0.2-0.3,0.2-0.5,0.2c-0.4-0.1-0.6,0.2-0.9,0.3c-0.3,0.1-0.4-0.3-0.7-0.3c1.7,1.5,3.7,2.4,6,2.6l0.2,0.1l-0.1-0.2v-1.7    L17.6,21C16.1,20.9,14.8,20.4,13.6,19.5z M13.6,19.4c-0.1,0-0.1-0.1-0.2-0.2L13.6,19.4z M13.4,19.2L13.4,19.2L13.4,19.2L13.4,19.2    z M23.4,19l0-0.1c-0.1,0.2-0.2,0.3-0.3,0.4c0,0.1,0,0.3,0.1,0.3c0.3,0.1,0.6,0.2,0.6,0.5c-0.1,0.3-0.6,0.5-0.3,0.8    c0.1,0.2-0.2,0.2-0.1,0.3l0.1-0.1c0.4-0.3,0.8-0.5,1.1-0.9h0c-0.1,0-0.2,0-0.3,0c-0.2-0.1-0.2-0.2-0.2-0.4L23.4,19z M14.7,17.2    c-0.4,0.5-0.8,0.9-1.2,1.3c0.2,0,0.3,0.2,0.5,0.3c0.9,0.8,2.1,1.2,3.2,1.4l-0.3-0.1c-0.2-0.3-0.5-0.5-0.5-0.9    c0.2-0.1,0.2-0.3,0.3-0.5c0.2-0.2,0.4-0.3,0.6-0.4c-0.6,0.3-1.2-0.2-1.7-0.5C15.3,17.7,14.9,17.5,14.7,17.2z M20.7,17    c-0.2,0-0.3,0.2-0.5,0.3c-0.2,0.1-0.3-0.2-0.4-0.1c0,0,0,0,0.1,0.1s0.1,0.1,0,0.2c-0.2,0.2-0.3-0.1-0.5-0.1v0.1c0,0,0,0.1-0.1,0.1    c-0.1-0.2-0.4-0.1-0.5-0.3c-0.1,0-0.2,0-0.2,0.1c0,0.1-0.2,0-0.2,0.2c-0.2,0.1-0.2,0.2-0.3,0.3c-0.2,0-0.3,0.2-0.5,0.2    c0,0,0,0.1,0.1,0.1c0.1,0.1,0.2,0.1,0.4,0c0.2-0.3,0.5-0.1,0.8-0.2c0.2,0,0,0.2,0.2,0.3c0.3-0.1,0.5,0.2,0.6,0    c0-0.3,0.3-0.3,0.5-0.4C20.4,17.7,20.8,17.5,20.7,17L20.7,17z M20,16.6c0,0.1-0.1,0.1,0,0.2c0.2-0.2,0.5-0.2,0.5-0.4    C20.3,16.4,20.2,16.5,20,16.6z M16.4,15.5c-0.3,0.4-0.8,0.8-1.2,1.2c0.7,0.5,1.4,0.9,2.2,1c0-0.2,0-0.4,0.1-0.5    c0.1-0.1,0.2-0.1,0.4-0.1C18,17.1,18,17,18,17c-0.2,0-0.1-0.2-0.2-0.4c0-0.1,0.1-0.1,0.1-0.1c-0.1-0.1,0.1-0.2,0-0.3    c0,0,0.1-0.1,0.1-0.1c-0.4,0.2-0.8,0-1.2-0.2C16.7,15.8,16.4,15.7,16.4,15.5z M24.2,15.5c-0.2,0-0.4,0.1-0.5,0    c-0.1-0.1-0.1,0-0.1,0.1c-0.1,0.1-0.1,0.2-0.3,0.2s-0.1-0.2-0.2-0.3c0,0.1,0,0.1,0,0.2C23,15.7,23,15.9,22.9,16    c-0.1,0.1-0.3,0.1-0.5,0.2c0,0.3-0.4,0.2-0.5,0.3c0,0,0,0,0.1,0.1c0.1,0,0.2,0,0.3-0.1c0.3,0.1,0.2-0.3,0.4-0.4    c0.1,0,0.3-0.1,0.4,0c0.1,0.2,0.2,0.4,0.2,0.6c-0.2,0.2-0.1,0.4-0.2,0.6c0,0.2-0.2,0.3-0.2,0.5C22.6,18,22.5,18,22.4,18    c-0.5-0.2-1-0.3-1.5-0.4c-0.1,0-0.1,0.1-0.1,0.1c0.2,0.1,0.5,0.1,0.7,0.2c0.2,0.1,0.4,0.3,0.6,0.2c0.2-0.1,0.6,0.1,0.7-0.2    c0-0.2,0.2-0.4,0.3-0.6l0.1,0c0.1,0.1,0.1,0.3,0.2,0.5c0.2-0.2,0.3-0.4,0.5-0.6c0.4-0.6,0.8-1.2,0.9-1.9    C24.6,15.4,24.4,15.5,24.2,15.5z M20.7,15.5c0,0.1,0,0.2,0.1,0.3c0.2,0,0.1,0.3,0.4,0.3c0.1,0,0-0.2,0-0.2c0-0.2-0.2-0.2-0.4-0.3    c0,0,0-0.1,0-0.1C20.8,15.4,20.8,15.4,20.7,15.5z M15.8,15c0,0.2-0.2,0.3-0.3,0.4h0c0.2-0.1,0.3-0.3,0.5-0.3L15.8,15z M13.9,14.5    c0.2,0.3,0.3,0.7,0.5,1c0.1,0.3,0.4,0.5,0.5,0.8c0.1-0.2,0.4-0.4,0.5-0.6c0-0.1,0-0.2-0.1-0.2c-0.1-0.1,0-0.3-0.1-0.4    c-0.2,0.1,0.1,0.2,0,0.3c-0.1,0-0.1,0-0.2-0.1c-0.1,0-0.3-0.2-0.3-0.3c0.1-0.1,0-0.1-0.1-0.2c-0.1,0-0.1,0-0.1,0c0,0-0.1,0-0.1,0    C14.4,14.5,14,14.7,13.9,14.5z M10.7,13.7l-0.1,0.1c-0.6,0-1.2,0-1.7,0l0.1,0.1L9,15c0.1,0.5,0.3,0.9,0.2,1.3    c0.1-0.1,0-0.3,0.2-0.3c-0.1-0.1,0.1-0.3,0-0.4c0.1-0.3,0.1-0.6,0.4-0.8c0.3,0,0.4-0.4,0.6-0.5c0.2,0,0.3,0.2,0.3,0.3    C10.6,14.4,10.6,14,10.7,13.7z M8.2,13.7l-0.2,0.1l-1.7,0c0.1,2,0.6,3.8,1.5,5.4C8.3,20,9,20.7,9.5,21.5l1.2-1.3l0.2-0.1    c-0.2-0.2-0.4-0.4-0.6-0.6c-0.2-0.1-0.4-0.2-0.5-0.4c-0.1-0.1,0-0.2-0.1-0.3L9.7,19c-0.2,0.1-0.3-0.1-0.5-0.2    c-0.2-0.1-0.1-0.5-0.4-0.4c-0.1,0-0.1-0.1-0.2-0.2c-0.3,0-0.3-0.3-0.5-0.4c0,0.1,0,0.1-0.1,0.2c-0.3,0.1-0.3-0.3-0.5-0.4    c0,0-0.1,0.1-0.1,0.1c-0.2-0.1-0.3-0.3-0.3-0.5c-0.2-0.2-0.1-0.6-0.1-0.9c0-0.1,0.1-0.1,0.1-0.2c0.1-0.1,0.2-0.1,0.3-0.2    c0.1,0,0.1,0.1,0.1,0.1C7.8,15.9,8,16,8,15.8c0.1-0.1,0.3-0.1,0.4-0.2c0.1,0.1,0.2,0.3,0.3,0.4l-0.1-0.1c-0.2-0.6-0.3-1.2-0.3-1.9    c0,0-0.1-0.1,0-0.1v0C8.2,13.9,8.2,13.8,8.2,13.7z M11.2,13.7l0.1,0.2c0,0.4,0.2,0.8,0.1,1.2c0.1-0.1,0.1-0.3,0.2-0.4    c0-0.1-0.2-0.1-0.1-0.3c0.1-0.2,0-0.6,0.3-0.7C11.6,13.8,11.4,13.8,11.2,13.7z M25.7,13.7c0,0.4-0.1,0.7-0.1,1.1l0.2,0.2    c0.1,0.1,0,0.2,0,0.3c-0.1,0.1-0.2,0-0.3,0c-0.3,0.8-0.6,1.6-1.1,2.3c-0.2,0.3-0.4,0.6-0.7,0.8l0.6,0.5c0,0,0-0.1,0-0.1    c0-0.1,0-0.2,0.1-0.2c0.3,0,0.3,0.3,0.5,0.4c0,0.2,0.2,0.4,0.1,0.6c1.6-1.6,2.4-3.7,2.5-5.9l0.1-0.1c-0.5,0.1-1.2,0-1.7,0    L25.7,13.7z M28.2,13.7L28.2,13.7L28.2,13.7c-0.1,2.2-0.8,4-2,5.6c-0.2,0.3-0.5,0.6-0.7,0.8c0.5,0.4,1,0.9,1.4,1.4l0.1-0.1    c1.9-2.2,3-4.7,3.1-7.6l0.1-0.2l-0.1,0L28.2,13.7z M24,13.6l0.2,0.2c0.2,0.1,0.1,0.4,0.3,0.5c0.3,0.1,0.3,0.4,0.5,0.6    c0-0.1,0-0.1,0.1-0.2c0.1-0.4,0.1-0.7,0.2-1.1C24.7,13.7,24.3,13.8,24,13.6z M24.4,13c-0.1,0-0.1,0-0.2,0C24.2,13,24.3,13,24.4,13    z M12.7,12.8c-0.5,0.2,0.1,0.5,0,0.8c-0.1,0.2-0.3,0-0.4,0.1l-0.1,0.3c-0.1,0.2-0.3,0.1-0.4,0.2c-0.1,0.1,0,0.3,0.1,0.4    c-0.2,0.4,0.4,0.5,0.4,0.9c0.2,0.2,0,0.5,0.2,0.7c0.1,0.4-0.1,0.9,0.3,1.3l0.1,0.4c0.1,0.3-0.3,0.2-0.3,0.4c0.1,0,0.1,0.1,0.1,0.1    l0,0c0.5-0.5,1-1.1,1.6-1.6l-0.2-0.2c-0.5-0.6-0.8-1.4-1-2.1l-0.2-0.1c0,0.2-0.1,0.4-0.1,0.5l-0.1,0.1c-0.1,0-0.2-0.1-0.3-0.2    c0-0.1-0.1-0.2,0-0.2c0.1,0,0.1,0,0.1,0c0.1-0.1,0-0.2,0.1-0.3c0-0.2-0.1-0.3,0-0.4c0.1,0,0.2,0.1,0.3,0.2c0.1,0,0.2-0.1,0.3-0.1    c0-0.1,0.2-0.3,0-0.3c0.1-0.3,0-0.5,0-0.7C13.1,12.7,12.9,12.8,12.7,12.8z M18.1,11.3c-0.1-0.1-0.3,0-0.5,0    c0.1,0.1,0.1,0.4,0.2,0.5c-0.2,0.3-0.5,0.4-0.8,0.5c-0.1,0.1-0.1,0.3-0.3,0.3c-0.1,0.1-0.3,0.2-0.2,0.4c-0.1,0.2-0.1,0.5-0.1,0.7    c-0.4,0.2-0.3-0.3-0.5-0.4L16,13.3c-0.1,0-0.1,0-0.2-0.1c-0.1,0-0.2,0-0.2,0c-0.1,0.1-0.2,0.3-0.2,0.5c0,0.1-0.2,0.1-0.2,0.2    c0.2,0,0.4,0,0.6-0.1c0.2,0,0.3-0.1,0.4-0.1c0,0,0.1,0.1,0.1,0.2h0c0.1-0.1,0.1-0.2,0.1-0.3c0-0.1,0.2-0.1,0.3-0.2    c0.1,0,0,0.1,0,0.2c0.3,0.1-0.1,0.3-0.1,0.5c-0.1,0.1,0,0.4-0.2,0.4c0,0-0.1-0.1-0.1-0.1h0c0,0.1,0.1,0.2,0.2,0.3    c0.2-0.1,0.2-0.4,0.4-0.4c0.1-0.1-0.1-0.4,0.1-0.5c0.3,0,0.7-0.1,0.9,0.1c0,0.1-0.1,0.2,0,0.3c-0.1,0.1-0.1,0.3-0.2,0.4    c0,0.1,0,0.2-0.1,0.2c-0.1,0.4-0.5,0.2-0.8,0.3c0.4,0.3,0.9,0.4,1.4,0.4c0.3,0,0.2-0.4,0.3-0.5c0.1-0.5,0.5-0.1,0.7-0.3    c0.1-0.2,0.2-0.4,0.2-0.6c-0.2-0.1-0.2-0.3-0.2-0.5c-0.1-0.1-0.1-0.4-0.3-0.4c0-0.1,0-0.1,0-0.2c0-0.1,0.1-0.2,0.2-0.3    c-0.1-0.1-0.1-0.3-0.1-0.4c-0.3,0.1-0.3-0.3-0.5-0.3c0-0.1-0.2-0.2-0.3-0.2c-0.3,0.1-0.4-0.2-0.6-0.3c0-0.1-0.1-0.2,0-0.2    c0.1-0.1,0.3,0,0.4,0L18.1,11.3z M15.1,10.2h0.1c0.2,0.2,0.4,0.1,0.5,0.3c0.1,0.1-0.1,0.1-0.1,0.2c0,0,0.1,0,0.1,0.1    c0.1,0,0.1-0.1,0.1-0.1c0.2-0.2,0.2,0.2,0.3,0.2c0.1-0.1,0.3-0.1,0.3,0c0.1-0.1,0.3,0,0.4-0.2c0.2-0.2,0.1-0.5,0.4-0.6    c0.1,0.1,0,0.2,0,0.2c0.2,0.1,0.4-0.2,0.6,0c-0.2-0.4-0.1-0.9-0.1-1.4C16.8,9.1,15.9,9.5,15.1,10.2z M18.4,8.9    c0.1,0.4,0,0.9,0.1,1.3l0.5,0.2c0.1-0.2,0.4-0.3,0.5-0.5c0.1-0.1,0.2,0,0.2,0.1c0,0.2,0,0.3-0.1,0.5c-0.2,0.3-0.5,0.4-0.8,0.6    c0.1,0.1,0.2-0.1,0.4-0.1c0.2,0,0.3,0.2,0.4,0.3c0.1,0.1,0.2,0,0.3-0.1c0.1-0.5,0.7-0.5,0.9-0.9l-0.1,0.1c-0.1-0.1-0.2,0-0.2-0.2    c0.1-0.1,0.3-0.3,0.4-0.3c-0.5-0.4-1.1-0.6-1.8-0.8C19,9,18.7,9,18.4,8.9z M13.1,8.8c-0.8,1-1.4,2.2-1.7,3.4    c-0.1,0.3,0,0.6-0.2,0.9c0.2-0.1,0.5-0.1,0.8,0c-0.2-0.1,0-0.3-0.1-0.4c0-0.2,0-0.4,0.1-0.5c0-0.3,0.3-0.4,0.3-0.6    c0.1-0.3,0.4-0.1,0.5-0.2c0.1-0.1,0-0.1,0-0.2c0.1-0.2,0.3-0.2,0.5-0.3c0.1-0.2,0.3-0.3,0.4-0.5c0.4,0,0.4-0.5,0.7-0.5    C14,9.7,13.5,9.2,13.1,8.8z M23.2,8.7L23.2,8.7c-0.6,0.7-1.2,1.3-1.8,1.9c0,0.1,0.1,0.1,0.2,0.2c0-0.2,0.1-0.3,0.1-0.4    c0.2-0.2,0.4-0.1,0.5,0c0.3-0.1,0.6,0.1,0.9,0.1c0.2,0.1,0.3,0.4,0.5,0.5c0.1,0.1,0,0.2-0.1,0.2c0.1,0.5,0.3-0.1,0.5,0    c0.1,0,0.2,0,0.3,0.1c0,0.2,0.3,0.2,0.3,0.4c0,0.1-0.1,0.1-0.2,0.2c0.1,0.2-0.2,0.3-0.1,0.5c0.4,0.1,0.4-0.4,0.5-0.5    c-0.1-0.3-0.2-0.6-0.4-0.9c-0.2,0-0.3-0.3-0.5-0.3c-0.4-0.2,0.1-0.4,0-0.6C23.8,9.4,23.5,9,23.2,8.7z M11.3,7v0.1l-0.7,0.8    C9.5,9.4,9,11.2,8.9,13.1l1.7,0l0.2,0.1c-0.1,0-0.1-0.1-0.1-0.2c0.1-1.8,0.7-3.3,2-4.7C12.2,7.9,11.7,7.4,11.3,7z M18.4,6.5    l0.1,0.1v1.7l0.2,0c1,0.2,2,0.5,2.8,1.1l0,0.1c0.3-0.4,0.7-0.7,1-1.1l0.3-0.2l-0.2-0.1c-0.7-0.6-1.4-1-2.3-1.3    C19.8,6.7,19.1,6.6,18.4,6.5z M17.8,6.5L17.8,6.5c-1.7,0.2-3,0.8-4.2,1.8c0.5,0.3,0.9,0.9,1.3,1.2c0,0,0.1-0.1,0.1-0.1    c0.6-0.4,1.2-0.8,1.9-1c0.3,0,0.6-0.2,0.9-0.1C17.7,7.7,17.7,7.1,17.8,6.5z M9.6,5.2c-1.8,2-2.9,4.2-3.2,6.8    c-0.1,0.4,0,0.7-0.1,1.1c0.6-0.1,1.3-0.1,1.9,0l0-0.3c0.1-2,0.7-3.7,1.9-5.3c0.3-0.3,0.5-0.7,0.8-1c-0.4-0.4-0.8-0.8-1.3-1.2    L9.6,5.2z M26.7,5.1c-0.4,0.5-0.8,0.9-1.2,1.3l-0.2,0c0.1,0,0.2,0.2,0.3,0.3c0.5,0.2,0.6,0.7,1,1c0.2,0.5,0.7,0.8,0.7,1.4    c0.5,1.2,0.9,2.4,0.9,3.9L28.1,13c0.1,0,0.1,0,0.1-0.1l1.8,0c-0.1-0.2-0.1-0.4-0.1-0.6C29.7,9.6,28.6,7.2,26.7,5.1z M12.9,5.7    c-0.4,0.3-0.7,0.6-1.1,0.8c0.5,0.3,0.8,0.8,1.3,1.2l0,0.1c1.1-1,2.4-1.6,3.7-1.9c0.3,0,0.6-0.1,1-0.1c0-0.6-0.1-1.2,0-1.8    C16,4.2,14.3,4.7,12.9,5.7z M24,4c-0.1,0.1-0.3-0.1-0.4,0c0,0.1,0,0.1,0,0.2C24,4.3,24,4.7,24.3,4.6c0.1-0.1-0.1-0.2,0-0.4    C24.3,4.1,24.2,4.1,24,4z M18.4,4l0.1,0.1c0,0.6,0,1.2,0,1.7c0.2-0.1,0.5,0,0.7,0c1.2,0.2,2.4,0.6,3.3,1.4    c-0.1-0.1-0.3-0.3-0.3-0.5c0,0,0,0,0.1,0c0-0.2-0.2-0.3-0.2-0.5c0,0,0.1-0.1,0.1-0.1c0.2,0.2,0.4,0.4,0.5,0.6    C22.9,6.9,23,7,23.1,7c0.2,0.1,0.1,0.3,0.2,0.5c0,0.4,0.5,0.6,0.5,0.9c0,0.1,0.1,0,0.2,0.1l0.4,0.5c-0.1,0.1,0,0.2,0.1,0.3    c0.2,0.1,0.3-0.1,0.4-0.1c0.2,0.1,0,0.3,0,0.5c0.1,0,0.2-0.1,0.3,0c0,0.1-0.1,0.2-0.2,0.3c0,0.1,0.1,0.1,0.2,0.1    c0.1,0,0.2,0.1,0.2,0.2c0.3,0.3-0.1,0.7,0.1,1c0.1,0.2,0,0.5-0.2,0.6c0,0.3-0.2,0.5-0.4,0.7l-0.3,0.1c-0.2,0.2,0.1,0.4,0,0.5h0.7    L25.1,13c-0.1-0.3-0.1-0.6,0.1-0.9c0.1-0.2,0.1-0.5,0.3-0.7c0,0,0.1-0.1,0.2,0c0,0.2,0,0.5-0.1,0.6c0.2,0.3,0.2,0.6,0.2,1    c0.6,0,1.2,0,1.8,0l-0.1-0.2c-0.1-1.2-0.3-2.2-0.8-3.2c-0.1,0-0.2,0.1-0.4,0.1c-0.1,0-0.1-0.1-0.1-0.1C26,9.4,25.8,9,25.6,8.8    c-0.3,0-0.5-0.3-0.7-0.4c-0.3-0.1-0.1-0.5-0.5-0.4C24.2,8,24,7.8,24,7.6c0-0.3-0.1-0.7-0.4-0.9c-0.2-0.1-0.3,0.2-0.5,0.2    C22.9,6.9,23,6.7,23,6.6c0-0.1-0.2-0.2-0.1-0.3c0.3-0.4-0.4-0.4-0.2-0.8c0-0.3-0.3-0.4-0.5-0.6c-1-0.4-1.9-0.7-3-0.9    C18.9,4.1,18.7,4.1,18.4,4z M19.9,2.5L19,2.9c-0.1,0-0.2-0.1-0.3,0c0,0,0,0.1,0,0.1c0.3,0.4,0.9,0.2,1.3,0.1    c0.3,0.1,0.6,0,0.8-0.2v0C20.6,2.5,20.2,2.5,19.9,2.5z M17.7,1.5c-2.5,0.1-4.7,1-6.7,2.4c-0.4,0.3-0.7,0.6-1.1,0.9H10    c0.5,0.4,1,0.9,1.4,1.3l0-0.1c1.8-1.6,3.9-2.5,6.3-2.7l-0.1-0.1l0-1.5L17.7,1.5z M18.4,1.5c0.1,0.5,0.1,1.2,0,1.7    c0-0.1,0-0.1,0.1-0.2c0.1,0,0.2,0,0.2,0.1c0,0.1,0,0.2,0,0.3c0.1,0,0.1,0,0.2,0c1.4,0.1,2.7,0.5,3.9,1.2v0    c0.3-0.1,0.5-0.3,0.8-0.1c0.3-0.1,0.4,0.3,0.6,0.3c0.3,0.2,0.6,0.5,0.6,0.8c0.1,0.1,0.2,0.2,0.3,0.3c0.2-0.4,0.6-0.7,0.9-1.1    l0.2-0.1c-1.9-1.8-4.1-2.8-6.6-3.1C19.2,1.6,18.8,1.6,18.4,1.5z M29.4,8c1.3,2.5,1.7,5.9,0.8,8.7c-0.8,3.3-3.6,6.7-6.9,8.1    c-3.7,1.8-8.9,1.4-12.1-1c-4.5-3.1-6.4-8.5-5-13.8C7,6.8,9.5,3.7,12.5,2.2c1.7-0.8,3.6-1.3,5.7-1.4C22.9,0.9,27.3,3.6,29.4,8z"/>
		<path class="st0" d="M29.8,3.2c0.9,0.8,1.3,1.9,1.6,3l0.2,0.4C30.2,5.6,29,4.3,28.2,3l-1-1C28.1,2.3,29,2.5,29.8,3.2"/>
		<path class="st0" d="M6.7,4.9C6.1,5.6,5.3,6.1,4.7,6.8C5,6,5,5.1,5.6,4.4c0.7-1.3,2.1-1.8,3.4-2.3C8,2.9,7.4,3.9,6.7,4.9"/>
		<path class="st0" d="M33,6.2c0.3,1.3-0.1,2.6,0.1,3.9v0c-0.7-1.4-2.2-2.1-3.3-3.2c-0.6-0.7-0.9-1.5-1-2.3c0.6,1.4,2.2,1.7,3.1,3    c0.3,0.3,0.4,0.7,0.6,1l0,0c-0.5-1.1-0.7-2.4-1.1-3.6c-0.2-0.5-0.5-1-1-1.4C31.7,3.8,32.8,5.1,33,6.2"/>
		<path class="st0" d="M5.6,3.8C4.4,4.6,4.4,6.1,4,7.4C3.9,7.9,3.7,8.3,3.6,8.8l0,0c0.2-0.5,0.6-1.1,1-1.5C5.5,6.5,6.8,6,7.3,4.8    c0,1.6-1.4,3-2.7,3.9c-0.5,0.5-1.1,1-1.4,1.6c0-0.4,0.1-0.8,0-1.3C3,7.6,2.9,6,3.9,4.9C4.4,4.3,4.9,3.9,5.6,3.8"/>
		<path class="st0" d="M33.8,6.5c1.1,1.5,1.4,3.9,0.5,5.6c-0.3,0.7-0.5,1.5-0.6,2.3c-0.1-0.1-0.1-0.3-0.1-0.5    c-0.5-1.7-2-2.9-2.7-4.4c-0.2-0.5-0.4-1.1-0.5-1.6c0.7,1.3,2.4,1.9,2.9,3.3c0.2,0.4,0.2,0.8,0.3,1.2c0,0,0.1,0,0.1,0    c-0.2-1.4-0.2-3,0.1-4.4c0-0.8-0.1-1.5-0.5-2.2C33.5,6,33.6,6.3,33.8,6.5"/>
		<path class="st0" d="M3,6C2,7.5,2.8,9.3,2.8,10.9l-0.1,1.7c0,0,0,0.1,0.1,0c0.1-0.2,0.1-0.4,0.1-0.6C3,10.7,4.2,9.8,5.2,8.8    C5.5,8.6,5.7,8.3,5.7,8c-0.1,0.7-0.3,1.4-0.6,2c-0.8,1.5-2.3,2.8-2.5,4.6c-0.1-1.7-1.3-3-1.2-4.8C1.4,8.4,2,7.2,3,6    C2.9,6,2.9,6,3,6"/>
		<path class="st0" d="M34.9,16.2c-0.6,0.9-1.4,1.8-2.1,2.7c0.1-0.7,0.2-1.7-0.1-2.4c-0.5-1.5-0.9-3.1-1.1-4.7l0-0.6    c0.4,1.7,2.1,2.9,2,4.8c0,0.5-0.1,0.9-0.2,1.3l0,0l0.1-0.1c0.3-0.9,0.4-1.9,0.8-2.8c0.5-1.3,1.2-2.5,0.9-4.1    C36,12.1,35.8,14.5,34.9,16.2"/>
		<path class="st0" d="M2.5,15.6c0.2,0.6,0.2,1.3,0.5,1.9c0,0,0,0,0.1,0c-0.6-1.8,0.3-3.4,1.2-4.8c0.2-0.4,0.4-0.8,0.5-1.2    c0.1,0.8-0.1,1.7-0.2,2.6c-0.2,1.1-0.5,2.1-0.8,3.1c-0.2,0.6-0.2,1.4,0,2.1l-0.1-0.1c-0.7-1.3-2-2.2-2.4-3.6    c-0.3-1.1-0.5-2.4-0.3-3.5C0.9,11.5,1,11,1.2,10.6C0.8,12.5,2,13.9,2.5,15.6"/>
		<path class="st0" d="M32.3,19.1c0,0.8-0.3,1.6-0.7,2.3h0.1c0.6-0.8,1.1-1.6,1.8-2.4c1.1-1,2.2-2.1,2.3-3.5c0.4,2.4-1,4.5-3,5.9    c-0.8,0.5-1.7,1-2.4,1.7V23c1.2-2,0.6-4.8,1.4-7l0.3-0.7C31.7,16.6,32.3,17.7,32.3,19.1"/>
		<path class="st0" d="M5.6,21.9c0.1,0.5,0.4,0.9,0.6,1.3c-1.9-1.3-4.4-2.5-5.2-4.8c-0.4-0.8-0.4-1.8-0.3-2.7    C0.8,17.7,3,18.8,4,20.5c0.3,0.4,0.5,0.7,0.8,1c0-0.2-0.3-0.4-0.3-0.6c-0.4-0.7-0.5-1.6-0.4-2.4c0.1-1.1,0.5-2,0.4-3.1    C5.4,17.3,5.1,19.7,5.6,21.9"/>
		<path class="st0" d="M29.5,23.4c-0.3,0.5-0.8,1.1-1.3,1.5c0.2,0,0.3-0.2,0.5-0.2c1.3-1.3,3.1-1.7,4.5-2.8c0.6-0.5,1.1-1.1,1.4-1.7    c-0.3,2.2-2.4,4.3-4.5,4.9c-1.1,0.3-2.2,0.4-3.3,0.7c1.8-1.5,1.7-3.8,2.8-5.6c0.4-0.5,0.7-1,1.1-1.5C30,20.2,30.4,22,29.5,23.4"/>
		<path class="st0" d="M7.4,21.5C8,23.1,8.2,24.8,9.6,26c-1.5-0.5-3.4-0.4-4.7-1.4c-1.5-0.9-2.8-2.5-3.1-4.2c1,2.3,3.6,2.5,5.3,4    c0.3,0.3,0.6,0.5,1,0.7l0,0c-0.4-0.4-0.9-0.8-1.1-1.2c-1-1.4-0.6-3.4-1.4-4.9C6.3,19.7,6.9,20.6,7.4,21.5"/>
		<path class="st0" d="M25.8,26.1c-0.4,0.3-0.9,0.3-1.3,0.5c0.5,0,1.1-0.2,1.6-0.3c2.1-0.3,4.4,0,5.8-1.7c-0.5,1.2-1.9,2.2-3.1,2.7    c-2.1,0.8-4.2-0.2-6.2-0.5l-0.4,0l0,0c1-0.2,1.9-0.5,2.6-1.2c1.1-1.1,2.1-2.2,3.4-3.1C27.4,23.6,27.3,25.3,25.8,26.1"/>
		<path class="st0" d="M11.4,25.5c0.8,0.7,1.7,1,2.8,1.2c-0.2,0.1-0.5,0.1-0.8,0.1c-1.8,0.5-3.8,1.2-5.7,0.5C6.4,27,5.1,26,4.5,24.8    c1.6,1.9,4.3,1.3,6.6,1.7c0.3,0,0.6,0.2,0.9,0.1c-0.3-0.2-0.6-0.2-0.9-0.3c-1.7-0.6-2-2.5-2.9-3.7C9.3,23.4,10.3,24.5,11.4,25.5"/>
		<path class="st0" d="M24.9,28c1.4,0.5,3.1,0.4,4.2-0.5c-0.6,0.7-1.4,1.3-2.2,1.6c-1.9,0.7-3.8,0-5.3-1.1c-0.6-0.4-1.1-0.9-1.9-0.9    c-0.3,0-0.5,0-0.8,0.1c1.4,0.6,2.7,1.6,3.9,2.7c-0.2,0.2-0.5,0.5-0.7,0.6c-1.2-1.3-2.4-2.4-3.9-3.2c-0.3,0-0.5,0.2-0.8,0.4    c-1.2,0.7-2.3,1.7-3.2,2.8L13.6,30c1.2-1.2,2.5-2.1,4-2.8c-1.4-0.5-2.4,0.7-3.4,1.4c-1.3,0.9-3.1,1.3-4.6,0.7    C8.8,29,8,28.5,7.4,27.8c1.2,0.8,3,0.9,4.3,0.4c1.8-0.8,3.7-1.8,5.9-1.3c0.4,0,0.7,0.4,1,0.1c1.6-0.4,3.5-0.1,4.9,0.6L24.9,28"/>
	</g>
	<g>
		<path class="st0" d="M41.8,6.5h0.7v4.2c0,0.5,0,0.8,0,0.9c0,0.3,0.1,0.5,0.2,0.7c0.1,0.2,0.3,0.3,0.6,0.5c0.3,0.1,0.5,0.2,0.8,0.2    c0.2,0,0.5-0.1,0.6-0.2c0.2-0.1,0.4-0.2,0.5-0.4s0.3-0.4,0.3-0.6c0-0.2,0.1-0.5,0.1-1.1V6.5h0.7v4.2c0,0.6-0.1,1.1-0.2,1.5    c-0.1,0.4-0.4,0.7-0.7,1c-0.4,0.3-0.8,0.4-1.3,0.4c-0.5,0-1-0.1-1.4-0.4s-0.7-0.6-0.8-1.1c-0.1-0.3-0.1-0.7-0.1-1.4L41.8,6.5    L41.8,6.5z"/>
		<path class="st0" d="M48,13.4V6.5h0.2l4.6,5.3V6.5h0.7v6.9h-0.1l-4.5-5.2v5.2H48z"/>
		<path class="st0" d="M55,6.5h0.7v6.9H55V6.5z"/>
		<path class="st0" d="M56.6,7.1V6.5h3.8v0.7h-1.5v6.2h-0.7V7.1H56.6z"/>
		<path class="st0" d="M61.4,6.5h4v0.7h-3.3v2.2h3.2V10h-3.2v2.7h3.2v0.7h-3.9V6.5z"/>
		<path class="st0" d="M66.5,13.4V6.5h1.4c1,0,1.8,0.1,2.3,0.3c0.7,0.2,1.2,0.6,1.6,1.2s0.6,1.3,0.6,2.1c0,0.7-0.2,1.3-0.5,1.8    c-0.3,0.5-0.7,0.9-1.2,1.2s-1.1,0.4-2,0.4L66.5,13.4L66.5,13.4z M67.2,12.7H68c1,0,1.6-0.1,2-0.2c0.5-0.2,0.9-0.5,1.2-0.9    c0.3-0.5,0.5-1,0.5-1.6c0-0.7-0.2-1.2-0.5-1.7s-0.8-0.8-1.4-1c-0.4-0.1-1.1-0.2-2.1-0.2h-0.5L67.2,12.7L67.2,12.7z"/>
		<path class="st0" d="M76.3,13.4V6.5h0.2l4.6,5.3V6.5h0.7v6.9h-0.2L77,8.1v5.2H76.3z"/>
		<path class="st0" d="M86.2,6.5l3.2,6.9h-0.7l-1.1-2.3h-3l-1.1,2.3h-0.8l3.3-6.9H86.2z M86.1,7.9l-1.2,2.5h2.4L86.1,7.9z"/>
		<path class="st0" d="M89,7.1V6.5h3.8v0.7h-1.5v6.2h-0.7V7.1H89z"/>
		<path class="st0" d="M93.7,6.5h0.7v6.9h-0.7V6.5z"/>
		<path class="st0" d="M99.3,6.3c1,0,1.9,0.4,2.6,1c0.7,0.7,1.1,1.5,1.1,2.6c0,1-0.4,1.9-1.1,2.6c-0.7,0.7-1.5,1.1-2.6,1.1    c-1,0-1.9-0.4-2.6-1.1c-0.7-0.7-1.1-1.5-1.1-2.5c0-0.7,0.2-1.3,0.5-1.8c0.3-0.6,0.7-1,1.3-1.3C98,6.5,98.6,6.3,99.3,6.3z M99.3,7    c-0.5,0-1,0.1-1.4,0.4C97.4,7.6,97,8,96.8,8.4c-0.3,0.5-0.4,1-0.4,1.5c0,0.8,0.3,1.5,0.8,2.1c0.6,0.6,1.3,0.8,2.1,0.8    c0.5,0,1-0.1,1.5-0.4s0.8-0.6,1.1-1.1c0.3-0.5,0.4-0.9,0.4-1.5c0-0.5-0.1-1-0.4-1.5c-0.3-0.5-0.6-0.8-1.1-1.1    C100.3,7.1,99.8,7,99.3,7z"/>
		<path class="st0" d="M104.3,13.4V6.5h0.2l4.6,5.3V6.5h0.7v6.9h-0.2L105,8.1v5.2H104.3z"/>
		<path class="st0" d="M110.7,12.1l0.6-0.4c0.4,0.8,0.9,1.1,1.4,1.1c0.2,0,0.5-0.1,0.6-0.2c0.2-0.1,0.4-0.3,0.5-0.4    c0.1-0.2,0.2-0.4,0.2-0.6c0-0.2-0.1-0.5-0.2-0.7c-0.2-0.3-0.6-0.7-1.2-1.1c-0.6-0.4-0.9-0.7-1.1-0.9c-0.3-0.3-0.4-0.7-0.4-1.1    c0-0.3,0.1-0.6,0.2-0.8c0.1-0.3,0.4-0.5,0.6-0.6c0.3-0.1,0.5-0.2,0.8-0.2c0.3,0,0.6,0.1,0.9,0.2c0.3,0.2,0.6,0.5,0.9,0.9L114,7.9    c-0.3-0.4-0.5-0.6-0.7-0.7C113.2,7.1,113,7,112.8,7c-0.3,0-0.5,0.1-0.7,0.3c-0.2,0.2-0.3,0.4-0.3,0.6c0,0.2,0,0.3,0.1,0.5    c0.1,0.1,0.2,0.3,0.4,0.5c0.1,0.1,0.4,0.3,0.9,0.7c0.6,0.5,1,0.8,1.2,1.2c0.2,0.4,0.3,0.7,0.3,1c0,0.5-0.2,0.9-0.6,1.3    c-0.4,0.4-0.8,0.5-1.4,0.5c-0.4,0-0.8-0.1-1.1-0.3C111.3,13,111,12.6,110.7,12.1z"/>
		<path class="st0" d="M41.7,18h1.5c1,0,1.7,0.1,2.2,0.4c0.5,0.3,0.9,0.6,1.2,1.2c0.3,0.6,0.5,1.2,0.5,2c0,0.5-0.1,1-0.3,1.4    c-0.2,0.5-0.4,0.8-0.7,1.1c-0.3,0.3-0.6,0.5-1,0.6c-0.4,0.1-1,0.2-1.9,0.2h-1.6V18z M43,19.3v4.3h0.6c0.6,0,1-0.1,1.3-0.2    c0.3-0.1,0.5-0.4,0.7-0.7c0.2-0.4,0.3-0.7,0.3-1.2c0-0.7-0.2-1.3-0.6-1.7c-0.4-0.4-1-0.5-1.8-0.5C43.4,19.3,43,19.3,43,19.3z"/>
		<path class="st0" d="M48.4,18h3.8v1.3h-2.4v1.3h2.4v1.3h-2.4v1.8h2.4v1.3h-3.8V18z"/>
		<path class="st0" d="M53.4,18h1.4c0.7,0,1.3,0.1,1.6,0.2c0.3,0.1,0.6,0.4,0.8,0.7c0.2,0.3,0.3,0.7,0.3,1.1c0,0.5-0.1,0.9-0.4,1.2    c-0.3,0.3-0.6,0.5-1,0.7c-0.3,0.1-0.7,0.1-1.4,0.1v2.9h-1.3L53.4,18L53.4,18z M54.7,20.7h0.4c0.3,0,0.5,0,0.7-0.1    c0.1,0,0.2-0.1,0.3-0.2c0.1-0.1,0.1-0.2,0.1-0.4c0-0.3-0.1-0.5-0.3-0.6c-0.2-0.1-0.4-0.1-0.8-0.1h-0.4L54.7,20.7L54.7,20.7z"/>
		<path class="st0" d="M60.9,18h1.3l2.6,6.9h-1.4l-0.5-1.4h-2.8l-0.5,1.4h-1.4L60.9,18z M61.5,19.8l-0.9,2.4h1.8L61.5,19.8z"/>
		<path class="st0" d="M66,18h1.4c0.8,0,1.3,0.1,1.6,0.2s0.6,0.4,0.8,0.7c0.2,0.3,0.3,0.7,0.3,1.1c0,0.5-0.1,0.8-0.3,1.1    c-0.2,0.3-0.5,0.5-1,0.7l1.6,3.1h-1.4l-1.5-2.9h-0.1v2.9h-1.3L66,18L66,18z M67.2,20.7h0.4c0.4,0,0.7-0.1,0.9-0.2    c0.2-0.1,0.2-0.3,0.2-0.5c0-0.2,0-0.3-0.1-0.4c-0.1-0.1-0.2-0.2-0.3-0.2c-0.1-0.1-0.4-0.1-0.7-0.1h-0.4V20.7z"/>
		<path class="st0" d="M70.8,18h3.8v1.3h-1.3v5.6H72v-5.6h-1.2V18z"/>
		<path class="st0" d="M76.1,18h1.3l1.6,4.8l1.6-4.8h1.3l1.2,6.9h-1.3l-0.7-4.3l-1.4,4.3h-1.2L77,20.5l-0.7,4.3h-1.3L76.1,18z"/>
		<path class="st0" d="M84.1,18h3.8v1.3h-2.4v1.3h2.4v1.3h-2.4v1.8h2.4v1.3h-3.8V18z"/>
		<path class="st0" d="M89.1,18h1.3l3,4.5V18h1.3v6.9h-1.3l-2.9-4.5v4.5h-1.3L89.1,18L89.1,18z"/>
		<path class="st0" d="M95.5,18h3.8v1.3H98v5.6h-1.3v-5.6h-1.2V18z"/>
		<path class="st0" d="M106.1,17.8c1,0,1.8,0.4,2.5,1.1c0.7,0.7,1.1,1.6,1.1,2.6c0,1-0.4,1.9-1,2.5c-0.7,0.7-1.5,1-2.5,1    c-1,0-1.9-0.4-2.6-1.1c-0.7-0.7-1-1.6-1-2.5c0-0.6,0.2-1.3,0.5-1.8s0.7-1,1.3-1.3C104.9,18,105.5,17.8,106.1,17.8z M106.1,19.1    c-0.6,0-1.2,0.2-1.6,0.7c-0.4,0.5-0.6,1-0.6,1.7c0,0.8,0.3,1.4,0.8,1.8c0.4,0.4,0.9,0.5,1.4,0.5c0.6,0,1.2-0.2,1.6-0.7    c0.5-0.5,0.6-1,0.6-1.7c0-0.6-0.2-1.2-0.7-1.7C107.3,19.3,106.7,19.1,106.1,19.1z"/>
		<path class="st0" d="M111,18h3.4v1.3h-2.1v1.3h2.1v1.3h-2.1v3.1H111V18z"/>
		<path class="st0" d="M118.9,18h1.3l1.6,4.8l1.6-4.8h1.3l1.2,6.9h-1.3l-0.7-4.3l-1.4,4.3h-1.2l-1.4-4.3l-0.7,4.3h-1.3L118.9,18z"/>
		<path class="st0" d="M129,18h1.3l2.6,6.9h-1.4l-0.5-1.4h-2.8l-0.5,1.4h-1.4L129,18z M129.6,19.8l-0.9,2.4h1.8L129.6,19.8z"/>
		<path class="st0" d="M133.9,18h1.3l3,4.5V18h1.3v6.9h-1.3l-2.9-4.5v4.5H134L133.9,18L133.9,18z"/>
		<path class="st0" d="M143.1,18h1.3l2.6,6.9h-1.4l-0.5-1.4h-2.8l-0.5,1.4h-1.4L143.1,18z M143.8,19.8l-0.9,2.4h1.8L143.8,19.8z"/>
		<path class="st0" d="M154.5,19.1l-0.9,0.9c-0.6-0.6-1.3-0.9-2-0.9c-0.7,0-1.3,0.2-1.7,0.7c-0.5,0.5-0.7,1-0.7,1.6    c0,0.7,0.2,1.2,0.7,1.7c0.5,0.5,1.1,0.7,1.8,0.7c0.5,0,0.8-0.1,1.2-0.3c0.3-0.2,0.5-0.5,0.7-0.9h-2v-1.2h3.5v0.3    c0,0.6-0.2,1.2-0.5,1.7c-0.3,0.5-0.7,1-1.2,1.2c-0.5,0.3-1.1,0.4-1.7,0.4c-0.7,0-1.4-0.2-1.9-0.5c-0.5-0.3-1-0.7-1.3-1.3    s-0.5-1.2-0.5-1.9c0-0.9,0.3-1.7,0.9-2.4c0.7-0.8,1.6-1.2,2.8-1.2c0.6,0,1.2,0.1,1.7,0.3C153.6,18.3,154.1,18.6,154.5,19.1z"/>
		<path class="st0" d="M156.2,18h3.8v1.3h-2.4v1.3h2.4v1.3h-2.4v1.8h2.4v1.3h-3.8V18z"/>
		<path class="st0" d="M161.8,18h1.3l1.6,4.8l1.6-4.8h1.3l1.2,6.9h-1.3l-0.7-4.3l-1.4,4.3h-1.2l-1.4-4.3l-0.7,4.3h-1.3L161.8,18z"/>
		<path class="st0" d="M169.8,18h3.8v1.3h-2.4v1.3h2.4v1.3h-2.4v1.8h2.4v1.3h-3.8V18z"/>
		<path class="st0" d="M174.8,18h1.3l3,4.5V18h1.3v6.9h-1.3l-2.9-4.5v4.5h-1.3L174.8,18L174.8,18z"/>
		<path class="st0" d="M181.2,18h3.8v1.3h-1.3v5.6h-1.3v-5.6h-1.2L181.2,18L181.2,18z"/>
	</g>
</g>
<g>
	<g>
		<path class="st0" d="M216.1,6.8c1.1,0,1.9,0.4,2.6,1.1c0.7,0.7,1.1,1.6,1.1,2.6c0,1-0.4,1.9-1.1,2.6c-0.7,0.7-1.6,1.1-2.6,1.1    s-1.9-0.4-2.6-1.1c-0.7-0.7-1.1-1.5-1.1-2.6c0-0.7,0.2-1.3,0.5-1.8c0.3-0.6,0.7-1,1.3-1.3C214.9,6.9,215.5,6.8,216.1,6.8z     M216.2,7.4c-0.5,0-1,0.1-1.5,0.4c-0.4,0.3-0.8,0.6-1.1,1.1c-0.3,0.4-0.4,1-0.4,1.5c0,0.8,0.3,1.5,0.9,2.1    c0.6,0.6,1.3,0.8,2.1,0.8c0.5,0,1.1-0.1,1.5-0.4c0.4-0.3,0.8-0.6,1.1-1.1c0.3-0.4,0.4-1,0.4-1.5c0-0.6-0.1-1.1-0.4-1.5    s-0.6-0.8-1.1-1.1C217.2,7.6,216.7,7.4,216.2,7.4z"/>
		<path class="st0" d="M221.2,6.9h3.5v0.7h-2.8v2.2h2.8v0.7h-2.8v3.4h-0.7L221.2,6.9L221.2,6.9z"/>
		<path class="st0" d="M225.8,6.9h3.5v0.7h-2.8v2.2h2.8v0.7h-2.8v3.4h-0.7L225.8,6.9L225.8,6.9z"/>
		<path class="st0" d="M230.3,6.9h0.7v7h-0.7V6.9z"/>
		<path class="st0" d="M238.9,8.2l-0.5,0.4c-0.3-0.4-0.7-0.7-1.1-0.9c-0.4-0.2-0.9-0.3-1.4-0.3c-0.6,0-1.1,0.1-1.5,0.4    c-0.5,0.3-0.8,0.6-1.1,1.1c-0.3,0.4-0.4,1-0.4,1.5c0,0.8,0.3,1.5,0.9,2.1c0.6,0.6,1.3,0.8,2.2,0.8c1,0,1.8-0.4,2.5-1.1l0.5,0.4    c-0.4,0.4-0.8,0.8-1.3,1c-0.5,0.2-1.1,0.4-1.7,0.4c-1.2,0-2.2-0.4-2.9-1.2c-0.6-0.7-0.9-1.5-0.9-2.5c0-1,0.4-1.9,1.1-2.6    c0.7-0.7,1.6-1.1,2.7-1.1c0.7,0,1.2,0.1,1.8,0.4C238.2,7.4,238.6,7.8,238.9,8.2z"/>
		<path class="st0" d="M240.2,6.9h4v0.7h-3.3v2.2h3.3v0.7h-3.3v2.7h3.3v0.7h-4V6.9z"/>
		<path class="st0" d="M251.2,6.8c1.1,0,1.9,0.4,2.6,1.1c0.7,0.7,1.1,1.6,1.1,2.6c0,1-0.4,1.9-1.1,2.6c-0.7,0.7-1.6,1.1-2.6,1.1    s-1.9-0.4-2.6-1.1c-0.7-0.7-1.1-1.5-1.1-2.6c0-0.7,0.2-1.3,0.5-1.8c0.3-0.6,0.7-1,1.3-1.3C250,6.9,250.5,6.8,251.2,6.8z     M251.3,7.4c-0.5,0-1,0.1-1.5,0.4c-0.4,0.3-0.8,0.6-1.1,1.1c-0.3,0.4-0.4,1-0.4,1.5c0,0.8,0.3,1.5,0.9,2.1    c0.6,0.6,1.3,0.8,2.1,0.8c0.5,0,1.1-0.1,1.5-0.4c0.4-0.3,0.8-0.6,1.1-1.1c0.3-0.4,0.4-1,0.4-1.5c0-0.6-0.1-1.1-0.4-1.5    s-0.6-0.8-1.1-1.1C252.2,7.6,251.8,7.4,251.3,7.4z"/>
		<path class="st0" d="M256.2,6.9h3.5v0.7h-2.8v2.2h2.8v0.7h-2.8v3.4h-0.7V6.9z"/>
		<path class="st0" d="M263.3,6.9h0.7v7h-0.7V6.9z"/>
		<path class="st0" d="M265.5,13.9v-7h0.1l4.6,5.3V6.9h0.7v7h-0.2l-4.6-5.3v5.3H265.5z"/>
		<path class="st0" d="M272.5,6.9h3.5v0.7h-2.8v2.2h2.8v0.7h-2.8v3.4h-0.7V6.9z"/>
		<path class="st0" d="M280.5,6.8c1.1,0,1.9,0.4,2.6,1.1c0.7,0.7,1.1,1.6,1.1,2.6c0,1-0.4,1.9-1.1,2.6c-0.7,0.7-1.6,1.1-2.6,1.1    s-1.9-0.4-2.6-1.1c-0.7-0.7-1.1-1.5-1.1-2.6c0-0.7,0.2-1.3,0.5-1.8c0.3-0.6,0.7-1,1.3-1.3C279.2,6.9,279.8,6.8,280.5,6.8z     M280.5,7.4c-0.5,0-1,0.1-1.5,0.4c-0.4,0.3-0.8,0.6-1.1,1.1c-0.3,0.4-0.4,1-0.4,1.5c0,0.8,0.3,1.5,0.9,2.1    c0.6,0.6,1.3,0.8,2.1,0.8c0.5,0,1.1-0.1,1.5-0.4c0.4-0.3,0.8-0.6,1.1-1.1c0.3-0.4,0.4-1,0.4-1.5c0-0.6-0.1-1.1-0.4-1.5    c-0.3-0.4-0.6-0.8-1.1-1.1C281.5,7.6,281,7.4,280.5,7.4z"/>
		<path class="st0" d="M285.5,6.9h1.4c0.8,0,1.3,0,1.6,0.1c0.4,0.1,0.7,0.3,1,0.6s0.4,0.7,0.4,1.1c0,0.4-0.1,0.7-0.3,1    c-0.2,0.3-0.4,0.5-0.7,0.7c-0.4,0.1-0.8,0.2-1.4,0.2l2.5,3.2h-0.9l-2.5-3.2h-0.4v3.2h-0.7V6.9L285.5,6.9z M286.2,7.6V10h1.2    c0.5,0,0.8,0,1-0.1s0.4-0.2,0.5-0.4c0.1-0.2,0.2-0.4,0.2-0.7c0-0.2,0-0.4-0.2-0.6s-0.3-0.3-0.5-0.4c-0.2-0.1-0.5-0.1-1-0.1H286.2z    "/>
		<path class="st0" d="M290.9,13.9l1-7h0.1l2.8,5.7l2.8-5.7h0.1l1,7h-0.7l-0.7-5l-2.5,5h-0.2l-2.5-5l-0.7,5H290.9z"/>
		<path class="st0" d="M302.9,6.9l3.3,7h-0.7l-1.1-2.3h-3l-1.1,2.3h-0.8l3.3-7H302.9z M302.8,8.4l-1.2,2.5h2.4L302.8,8.4z"/>
		<path class="st0" d="M305.6,7.6V6.9h3.8v0.7h-1.5v6.3h-0.7V7.6H305.6z"/>
		<path class="st0" d="M310.3,6.9h0.7v7h-0.7V6.9z"/>
		<path class="st0" d="M315.8,6.8c1.1,0,1.9,0.4,2.6,1.1s1.1,1.6,1.1,2.6c0,1-0.4,1.9-1.1,2.6c-0.7,0.7-1.6,1.1-2.6,1.1    c-1,0-1.9-0.4-2.6-1.1c-0.7-0.7-1.1-1.5-1.1-2.6c0-0.7,0.2-1.3,0.5-1.8c0.3-0.6,0.7-1,1.3-1.3C314.5,6.9,315.1,6.8,315.8,6.8z     M315.8,7.4c-0.5,0-1,0.1-1.5,0.4c-0.4,0.3-0.8,0.6-1.1,1.1c-0.3,0.4-0.4,1-0.4,1.5c0,0.8,0.3,1.5,0.9,2.1    c0.6,0.6,1.3,0.8,2.1,0.8c0.5,0,1.1-0.1,1.5-0.4c0.4-0.3,0.8-0.6,1.1-1.1c0.3-0.4,0.4-1,0.4-1.5c0-0.6-0.1-1.1-0.4-1.5    c-0.3-0.4-0.6-0.8-1.1-1.1C316.8,7.6,316.3,7.4,315.8,7.4z"/>
		<path class="st0" d="M320.8,13.9v-7h0.1l4.6,5.3V6.9h0.7v7H326l-4.6-5.3v5.3H320.8z"/>
		<path class="st0" d="M333.2,6.9l3.3,7h-0.7l-1.1-2.3h-3l-1.1,2.3h-0.8l3.3-7H333.2z M333.1,8.4l-1.2,2.5h2.4L333.1,8.4z"/>
		<path class="st0" d="M337.5,13.9v-7h0.1l4.6,5.3V6.9h0.7v7h-0.2l-4.6-5.3v5.3H337.5z"/>
		<path class="st0" d="M344.5,13.9v-7h1.5c1.1,0,1.8,0.1,2.2,0.3c0.7,0.2,1.2,0.7,1.6,1.2c0.4,0.6,0.6,1.3,0.6,2.1    c0,0.7-0.1,1.3-0.4,1.8c-0.3,0.5-0.7,0.9-1.2,1.2c-0.5,0.3-1.1,0.4-2,0.4L344.5,13.9L344.5,13.9z M345.2,13.2h0.8c1,0,1.6,0,2-0.2    c0.5-0.2,0.9-0.5,1.2-0.9s0.4-1,0.4-1.6s-0.2-1.2-0.5-1.7c-0.3-0.5-0.8-0.8-1.4-1c-0.4-0.1-1.1-0.2-2.2-0.2h-0.5L345.2,13.2    L345.2,13.2z"/>
		<path class="st0" d="M219.3,19.8l-0.5,0.4c-0.3-0.4-0.7-0.7-1.1-0.9c-0.4-0.2-0.9-0.3-1.4-0.3c-0.6,0-1.1,0.1-1.5,0.4    c-0.5,0.3-0.8,0.6-1.1,1.1c-0.3,0.4-0.4,1-0.4,1.5c0,0.8,0.3,1.5,0.9,2.1c0.6,0.6,1.3,0.8,2.2,0.8c1,0,1.8-0.4,2.5-1.1l0.5,0.4    c-0.4,0.4-0.8,0.8-1.3,1c-0.5,0.2-1.1,0.4-1.7,0.4c-1.2,0-2.2-0.4-2.9-1.2c-0.6-0.7-0.9-1.5-0.9-2.5c0-1,0.4-1.9,1.1-2.6    c0.7-0.7,1.6-1.1,2.7-1.1c0.7,0,1.2,0.1,1.8,0.4C218.6,19,219,19.4,219.3,19.8z"/>
		<path class="st0" d="M223.9,18.4c1.1,0,1.9,0.4,2.6,1.1c0.7,0.7,1.1,1.6,1.1,2.6c0,1-0.4,1.9-1.1,2.6c-0.7,0.7-1.6,1.1-2.6,1.1    s-1.9-0.4-2.6-1.1c-0.7-0.7-1.1-1.5-1.1-2.6c0-0.7,0.2-1.3,0.5-1.8c0.3-0.6,0.7-1,1.3-1.3C222.7,18.5,223.3,18.4,223.9,18.4z     M224,19c-0.5,0-1,0.1-1.5,0.4c-0.4,0.3-0.8,0.6-1.1,1.1c-0.3,0.4-0.4,1-0.4,1.5c0,0.8,0.3,1.5,0.9,2.1s1.3,0.8,2.1,0.8    c0.5,0,1.1-0.1,1.5-0.4s0.8-0.6,1.1-1.1c0.3-0.4,0.4-1,0.4-1.5c0-0.6-0.1-1.1-0.4-1.5c-0.3-0.4-0.6-0.8-1.1-1.1    C224.9,19.3,224.5,19,224,19z"/>
		<path class="st0" d="M228.6,25.5l1-7h0.1l2.8,5.7l2.8-5.7h0.1l1,7h-0.7l-0.7-5l-2.5,5h-0.3l-2.5-5l-0.7,5H228.6z"/>
		<path class="st0" d="M237.4,25.5l1-7h0.1l2.8,5.7l2.8-5.7h0.1l1,7h-0.7l-0.7-5l-2.5,5h-0.3l-2.5-5l-0.7,5H237.4z"/>
		<path class="st0" d="M246.5,18.6h0.7v4.2c0,0.5,0,0.8,0,0.9c0,0.3,0.1,0.5,0.2,0.7c0.1,0.2,0.3,0.4,0.6,0.5    c0.3,0.1,0.5,0.2,0.8,0.2c0.2,0,0.4,0,0.7-0.1c0.2-0.1,0.4-0.2,0.5-0.4c0.1-0.2,0.3-0.4,0.3-0.6c0-0.2,0.1-0.5,0.1-1.1v-4.2h0.7    v4.2c0,0.6,0,1.1-0.2,1.5c-0.1,0.4-0.4,0.7-0.7,1s-0.8,0.4-1.3,0.4c-0.6,0-1.1-0.1-1.5-0.4c-0.4-0.3-0.7-0.6-0.8-1.1    c-0.1-0.3-0.1-0.7-0.1-1.5V18.6L246.5,18.6z"/>
		<path class="st0" d="M252.8,25.5v-7h0.1l4.6,5.3v-5.3h0.7v7h-0.2l-4.6-5.3v5.3H252.8z"/>
		<path class="st0" d="M259.7,18.6h0.7v7h-0.7V18.6z"/>
		<path class="st0" d="M268.4,19.8l-0.5,0.4c-0.3-0.4-0.7-0.7-1.1-0.9c-0.4-0.2-0.9-0.3-1.4-0.3c-0.6,0-1.1,0.1-1.5,0.4    c-0.5,0.3-0.8,0.6-1.1,1.1c-0.3,0.4-0.4,1-0.4,1.5c0,0.8,0.3,1.5,0.9,2.1c0.6,0.6,1.3,0.8,2.2,0.8c1,0,1.8-0.4,2.5-1.1l0.5,0.4    c-0.4,0.4-0.8,0.8-1.3,1c-0.5,0.2-1.1,0.4-1.7,0.4c-1.2,0-2.2-0.4-2.9-1.2c-0.6-0.7-0.9-1.5-0.9-2.5c0-1,0.4-1.9,1.1-2.6    c0.7-0.7,1.6-1.1,2.7-1.1c0.7,0,1.2,0.1,1.8,0.4C267.7,19,268.1,19.4,268.4,19.8z"/>
		<path class="st0" d="M272.5,18.6l3.3,7h-0.7l-1.1-2.3h-3l-1.1,2.3h-0.8l3.3-7H272.5z M272.5,20l-1.2,2.5h2.4L272.5,20z"/>
		<path class="st0" d="M275.3,19.2v-0.7h3.8v0.7h-1.5v6.3h-0.7v-6.3H275.3z"/>
		<path class="st0" d="M279.9,18.6h0.7v7h-0.7V18.6z"/>
		<path class="st0" d="M285.4,18.4c1.1,0,1.9,0.4,2.6,1.1c0.7,0.7,1.1,1.6,1.1,2.6c0,1-0.4,1.9-1.1,2.6c-0.7,0.7-1.6,1.1-2.6,1.1    s-1.9-0.4-2.6-1.1c-0.7-0.7-1.1-1.5-1.1-2.6c0-0.7,0.2-1.3,0.5-1.8s0.7-1,1.3-1.3C284.2,18.5,284.8,18.4,285.4,18.4z M285.4,19    c-0.5,0-1,0.1-1.5,0.4c-0.4,0.3-0.8,0.6-1.1,1.1c-0.3,0.4-0.4,1-0.4,1.5c0,0.8,0.3,1.5,0.9,2.1c0.6,0.6,1.3,0.8,2.1,0.8    c0.5,0,1.1-0.1,1.5-0.4c0.4-0.3,0.8-0.6,1.1-1.1c0.3-0.4,0.4-1,0.4-1.5c0-0.6-0.1-1.1-0.4-1.5c-0.3-0.4-0.6-0.8-1.1-1.1    C286.4,19.2,286,19,285.4,19z"/>
		<path class="st0" d="M290.4,25.5v-7h0.1l4.6,5.3v-5.3h0.7v7h-0.2l-4.6-5.3v5.3H290.4z"/>
		<path class="st0" d="M296.7,24.2l0.6-0.4c0.4,0.7,0.9,1.1,1.5,1.1c0.2,0,0.4,0,0.7-0.2c0.2-0.1,0.4-0.3,0.5-0.4    c0.1-0.2,0.2-0.4,0.2-0.6c0-0.2-0.1-0.4-0.2-0.7c-0.2-0.3-0.6-0.7-1.2-1.1s-0.9-0.7-1.1-1c-0.3-0.3-0.4-0.7-0.4-1.1    c0-0.3,0.1-0.6,0.2-0.8s0.4-0.4,0.6-0.6c0.3-0.1,0.5-0.2,0.9-0.2c0.3,0,0.6,0.1,0.9,0.3c0.3,0.2,0.6,0.4,0.9,0.9l-0.6,0.4    c-0.3-0.4-0.5-0.6-0.7-0.7c-0.2-0.1-0.4-0.2-0.6-0.2c-0.3,0-0.5,0.1-0.7,0.3c-0.2,0.2-0.3,0.4-0.3,0.6c0,0.1,0,0.3,0.1,0.4    c0,0.1,0.2,0.3,0.4,0.5c0.1,0.1,0.4,0.3,0.9,0.7c0.6,0.4,1,0.8,1.2,1.2c0.2,0.4,0.4,0.7,0.4,1.1c0,0.5-0.2,0.9-0.6,1.3    c-0.4,0.4-0.8,0.6-1.4,0.6c-0.4,0-0.8-0.1-1.1-0.4C297.4,25.1,297.1,24.7,296.7,24.2z"/>
		<path class="st0" d="M304.1,19.2v-0.7h3.8v0.7h-1.5v6.3h-0.7v-6.3H304.1z"/>
		<path class="st0" d="M308.8,18.6h4v0.7h-3.3v2.2h3.3v0.7h-3.3v2.7h3.3v0.7h-4V18.6z"/>
		<path class="st0" d="M320.4,19.8l-0.5,0.4c-0.3-0.4-0.7-0.7-1.1-0.9c-0.4-0.2-0.9-0.3-1.4-0.3c-0.6,0-1.1,0.1-1.5,0.4    c-0.5,0.3-0.8,0.6-1.1,1.1c-0.3,0.4-0.4,1-0.4,1.5c0,0.8,0.3,1.5,0.9,2.1c0.6,0.6,1.3,0.8,2.2,0.8c1,0,1.8-0.4,2.5-1.1l0.5,0.4    c-0.4,0.4-0.8,0.8-1.3,1c-0.5,0.2-1.1,0.4-1.7,0.4c-1.2,0-2.2-0.4-2.9-1.2c-0.6-0.7-0.9-1.5-0.9-2.5c0-1,0.4-1.9,1.1-2.6    c0.7-0.7,1.6-1.1,2.7-1.1c0.7,0,1.2,0.1,1.8,0.4C319.6,19,320.1,19.4,320.4,19.8z"/>
		<path class="st0" d="M321.6,18.6h0.7v2.9h3.5v-2.9h0.7v7h-0.7v-3.3h-3.5v3.3h-0.7V18.6z"/>
		<path class="st0" d="M328.2,25.5v-7h0.1l4.6,5.3v-5.3h0.7v7h-0.2l-4.6-5.3v5.3H328.2z"/>
		<path class="st0" d="M338.6,18.4c1.1,0,1.9,0.4,2.6,1.1c0.7,0.7,1.1,1.6,1.1,2.6c0,1-0.4,1.9-1.1,2.6c-0.7,0.7-1.6,1.1-2.6,1.1    c-1,0-1.9-0.4-2.6-1.1s-1.1-1.5-1.1-2.6c0-0.7,0.2-1.3,0.5-1.8c0.3-0.6,0.7-1,1.3-1.3C337.3,18.5,337.9,18.4,338.6,18.4z     M338.6,19c-0.5,0-1,0.1-1.5,0.4c-0.4,0.3-0.8,0.6-1.1,1.1c-0.3,0.4-0.4,1-0.4,1.5c0,0.8,0.3,1.5,0.9,2.1c0.6,0.6,1.3,0.8,2.1,0.8    c0.5,0,1.1-0.1,1.5-0.4c0.4-0.3,0.8-0.6,1.1-1.1c0.3-0.4,0.4-1,0.4-1.5c0-0.6-0.1-1.1-0.4-1.5c-0.3-0.4-0.6-0.8-1.1-1.1    C339.6,19.2,339.1,19,338.6,19z"/>
		<path class="st0" d="M343.6,18.6h0.7v6.3h2.7v0.7h-3.4V18.6z"/>
		<path class="st0" d="M351.3,18.4c1.1,0,1.9,0.4,2.6,1.1c0.7,0.7,1.1,1.6,1.1,2.6c0,1-0.4,1.9-1.1,2.6c-0.7,0.7-1.6,1.1-2.6,1.1    s-1.9-0.4-2.6-1.1s-1.1-1.5-1.1-2.6c0-0.7,0.2-1.3,0.5-1.8c0.3-0.6,0.7-1,1.3-1.3C350,18.5,350.6,18.4,351.3,18.4z M351.3,19    c-0.5,0-1,0.1-1.5,0.4c-0.4,0.3-0.8,0.6-1.1,1.1c-0.3,0.4-0.4,1-0.4,1.5c0,0.8,0.3,1.5,0.9,2.1c0.6,0.6,1.3,0.8,2.1,0.8    c0.5,0,1.1-0.1,1.5-0.4c0.4-0.3,0.8-0.6,1.1-1.1c0.3-0.4,0.4-1,0.4-1.5c0-0.6-0.1-1.1-0.4-1.5c-0.3-0.4-0.6-0.8-1.1-1.1    C352.3,19.2,351.8,19,351.3,19z"/>
		<path class="st0" d="M363,19.7l-0.5,0.5c-0.4-0.4-0.8-0.7-1.3-0.9c-0.4-0.2-0.9-0.3-1.4-0.3c-0.5,0-1.1,0.1-1.5,0.4    c-0.5,0.3-0.9,0.6-1.1,1.1c-0.3,0.4-0.4,0.9-0.4,1.5s0.1,1,0.4,1.5c0.3,0.5,0.7,0.8,1.1,1.1c0.5,0.3,1.1,0.4,1.6,0.4    c0.7,0,1.3-0.2,1.8-0.6c0.5-0.4,0.8-0.9,0.9-1.6h-2.2v-0.7h3c0,1.1-0.3,1.9-1,2.6c-0.6,0.6-1.5,1-2.6,1c-1.3,0-2.3-0.4-3-1.3    c-0.6-0.7-0.9-1.5-0.9-2.3c0-0.7,0.2-1.3,0.5-1.8c0.3-0.6,0.8-1,1.4-1.3c0.6-0.3,1.2-0.5,1.9-0.5c0.6,0,1.1,0.1,1.7,0.3    C362,18.9,362.5,19.3,363,19.7z"/>
		<path class="st0" d="M364.1,18.6h0.8l1.8,2.9l1.8-2.9h0.8l-2.2,3.6v3.3h-0.7v-3.3L364.1,18.6z"/>
	</g>
</g>
<line class="st1" x1="199.2" y1="5" x2="199.2" y2="26"/>
</svg>