<svg width="242" height="73" viewBox="0 0 242 73" xmlns="http://www.w3.org/2000/svg" xmlns:xlink="http://www.w3.org/1999/xlink"><title>logo</title><defs><path d="M28.5 55.4C13.2 55.4.8 43 .8 27.7.8 12.4 13.2 0 28.5 0c15.3 0 27.7 12.4 27.7 27.7 0 15.3-12.4 27.7-27.7 27.7zm0-3.2C42 52.2 53 41.2 53 27.7S42 3.2 28.5 3.2C14.9 3.2 4 14.2 4 27.7s10.9 24.5 24.5 24.5z" id="a"/><path id="c" d="M21.4 42.9c11.7 0 21.2-9.5 21.2-21.2S33.1.5 21.4.5.2 10 .2 21.7s9.5 21.2 21.2 21.2z"/><path id="e" d="M21.4 42.9c11.7 0 21.2-9.5 21.2-21.2S33.1.5 21.4.5.2 10 .2 21.7s9.5 21.2 21.2 21.2z"/><path id="g" d="M21.4 42.9c11.7 0 21.2-9.5 21.2-21.2S33.1.5 21.4.5.2 10 .2 21.7s9.5 21.2 21.2 21.2z"/><path id="i" d="M2.7 10.2L0 6.2l1-3.1L5 0l4.6.3 2.8 2.5.8-.9 3.1.7L20.8 9l2.8-1.2-3.8 6.1.2 3-3.9 3.2-3.6.7-2.6-3.1.7-1.1-2-5-5.9-1.4z"/><path id="k" d="M12.5.7l2.6 2.2L14 4l.6 3.9-4.9 4.6L8.6 14H6.2l-3 1.5-.2 1.6-1.7-.4L.4 19l1.9.5 2-1.9 2-.1.5 2.5 1.1-.1s-.3-.8-.4-1.2C7.3 18.1 7 17 7 17l.3.3c.6.6 1.7 1.9 1.7 1.9l1.2-.5 1.3-2.4 3.1.9-3.4 1.6V20l2.6-.1.1 3.1 3.4 4.7 2-1.1 2.1-3.3L19 23l-1.2-1.7 2.2.7 3.1-.8 3.8 3.6.8-6.9 2.8 1.1C29.3 9.6 21.9 2.1 12.5.7z"/><path id="m" d="M1.9 1.5l1-1.3v1.2c0 .1.1.2.1.3.1.1.2.3.2.3l.3.7-.5.7s-.7 0-1 .1l-1 .1.5-.8.1-.2h-1v-.7l1-.5.3.1z"/><path id="o" d="M.7 4.9V3.8L4 .9l2.6.9-1.3.8.8.9-1.9 1.1-.3-.9.4-1.1L3 4.1v1.4l-1 .7L.7 4.9z"/><path id="q" d="M.2 5.3l1.9-.8 2.6.1 3.1-3L5.2.7 2.7 2.8.1 4.7l.1.6z"/><path id="s" d="M6.9.2L3.6 2.7l3.2-1.2L6 3.3l-.2.2-2.5 2.2-.7-.3-.9.8-.7-.4-.6.2c1.8-2.4 4-4.3 6.5-5.8z"/><path id="u" d="M.4 2.9l1 .5-.9 1.9 2.4-1.2 2.3-2.5 1-.3-.1-.4c-2 .4-3.9 1.1-5.7 2z"/><path id="w" d="M41 35.1c-4 2.7-8.7 4.4-13.7 4.4-9.9 0-16.1-6.7-16.1-15.1 0-8.6 6.4-15 15.7-15 4.9 0 9.8 1.8 13.3 4.1V3C36.4 1.2 31.7.1 26.8.1 11.3.1.5 10.8.5 24.6s10.7 24.3 26.3 24.3c4.8 0 10-1 14.1-3.1V35.1h.1z"/><path id="y" d="M40.7 35.1c-4 2.7-8.7 4.4-13.7 4.4-9.9 0-16.1-6.7-16.1-15.1 0-8.6 6.4-15 15.7-15 4.9 0 9.8 1.8 13.3 4.1V3C36.1 1.2 31.4.1 26.5.1 11 .1.2 10.8.2 24.6s10.7 24.3 26.3 24.3c4.8 0 10-1 14.1-3.1V35.1h.1z"/><path id="A" d="M.2 7.6L9.6 20c3.1 4.1 6.1 8.1 9.1 12.2l.1-.1c-.1-4.5-.1-9.1-.1-13.7V.9h10.2v47.4h-10L4.4 29.2C3 27.3 1.6 25.5.2 23.6v-16z"/><path id="C" d="M10.3.9H.1v47.3h10.2"/><path id="E" d="M.2.9h10.6v33.3H.2z"/><path id="G" d="M42 9.9h.4v-9H.6v8.9l41.4.1z"/></defs><g fill="none" fill-rule="evenodd"><mask id="b" fill="#fff"><use xlink:href="#a"/></mask><path fill="#697D81" mask="url(#b)" d="M-2.1-2.8H59v61H-2.1z"/><g transform="translate(7 6)"><mask id="d" fill="#fff"><use xlink:href="#c"/></mask><path fill="#ECF0F0" mask="url(#d)" d="M-2.7-2.4h48.1v48.1H-2.7z"/></g><g transform="translate(7 6)"><mask id="f" fill="#fff"><use xlink:href="#e"/></mask><path fill="#ECF0F0" mask="url(#f)" d="M-2.7-2.3h48.1v48.1H-2.7z"/></g><g transform="translate(7 6)"><mask id="h" fill="#fff"><use xlink:href="#g"/></mask><path fill="#ECF0F0" mask="url(#h)" d="M-2.6-2.4h48.1v48.1H-2.6z"/></g><g transform="translate(15 26)"><mask id="j" fill="#fff"><use xlink:href="#i"/></mask><path fill="#0E9DCB" mask="url(#j)" d="M-2.8-2.8h29.3v26.4H-2.8z"/></g><g transform="translate(19 6)"><mask id="l" fill="#fff"><use xlink:href="#k"/></mask><path fill="#0E9DCB" mask="url(#l)" d="M-2.4-2.2h35.7v32.8H-2.4z"/></g><g transform="translate(20 17)"><mask id="n" fill="#fff"><use xlink:href="#m"/></mask><path fill="#0E9DCB" mask="url(#n)" d="M-2.4-2.6h8.7v8.9h-8.7z"/></g><g transform="translate(24 13)"><mask id="p" fill="#fff"><use xlink:href="#o"/></mask><path fill="#0E9DCB" mask="url(#p)" d="M-2.1-1.9H9.4V9H-2.1z"/></g><g transform="translate(18 9)"><mask id="r" fill="#fff"><use xlink:href="#q"/></mask><path fill="#0E9DCB" mask="url(#r)" d="M-2.8-2.1h13.4V8.1H-2.8z"/></g><g transform="translate(11 9)"><mask id="t" fill="#fff"><use xlink:href="#s"/></mask><path fill="#0E9DCB" mask="url(#t)" d="M-2.4-2.6H9.7V9H-2.4z"/></g><g transform="translate(18 6)"><mask id="v" fill="#fff"><use xlink:href="#u"/></mask><path fill="#0E9DCB" mask="url(#v)" d="M-2.4-2H9V8.2H-2.4z"/></g><g><g transform="translate(64 4)"><mask id="x" fill="#fff"><use xlink:href="#w"/></mask><path fill="#697D81" mask="url(#x)" d="M-3.2-3.7h47.9v56.3H-3.2z"/></g><g transform="translate(151 4)"><mask id="z" fill="#fff"><use xlink:href="#y"/></mask><path fill="#697D81" mask="url(#z)" d="M-3.5-3.7h47.9v56.3H-3.5z"/></g><g transform="translate(212 4)"><mask id="B" fill="#fff"><use xlink:href="#A"/></mask><path d="M-3.6-2.9h36.2V52H-3.6V-2.9z" fill="#697D81" mask="url(#B)"/></g><g transform="translate(197 4)"><mask id="D" fill="#fff"><use xlink:href="#C"/></mask><path fill="#697D81" mask="url(#D)" d="M-3.7-2.9H14V52H-3.7z"/></g><g transform="translate(125 18)"><mask id="F" fill="#fff"><use xlink:href="#E"/></mask><path fill="#697D81" mask="url(#F)" d="M-3.6-2.8h18.1V38H-3.6z"/></g><g transform="translate(109 4)"><mask id="H" fill="#fff"><use xlink:href="#G"/></mask><path fill="#697D81" mask="url(#H)" d="M-3.2-2.9h49.3v16.6H-3.2z"/></g></g><path d="M2.2 68c0-2.5 1.9-4 3.9-4s3.1 1.2 3.5 2.5l-1.2.4c-.2-.9-.9-1.7-2.2-1.7-1.3 0-2.5.9-2.5 2.8 0 1.8 1.2 2.8 2.6 2.8 1.3 0 2-.8 2.3-1.7l1.2.4c-.3 1.3-1.5 2.6-3.5 2.6-2.3 0-4.1-1.5-4.1-4.1zm8.7 3.9v-7.7h1.3v6.5h3.5v1.2h-4.8zm6 0v-7.7h1.3v7.7h-1.3zm10.4 0v-5.7l-2.4 5.7h-1.1l-2.4-5.7v5.7h-1.3v-7.7h1.7l2.5 5.9 2.5-5.9h1.8v7.7h-1.3zM35 70h-3.3l-.7 1.9h-1.4l3-7.7h1.5l3 7.7h-1.4L35 70zm-2.8-1.3h2.4l-1.2-3.2-1.2 3.2zm8.4-3.3v6.5h-1.3v-6.5h-2.5v-1.2h6.3v1.2h-2.5zm3.5 6.5v-7.7h4.8v1.2h-3.5v2h3.1v1.2h-3.1v2h3.5v1.2h-4.8v.1zm12.1-6.5v6.5h-1.3v-6.5h-2.5v-1.2h6.3v1.2h-2.5zm3.6 6.5v-7.7h4.8v1.2h-3.5v2h3.1v1.2h-3.1v2h3.5v1.2h-4.8v.1zm5.8-3.9c0-2.5 1.9-4 3.9-4s3.1 1.2 3.5 2.5l-1.2.4c-.2-.9-.9-1.7-2.2-1.7-1.3 0-2.5.9-2.5 2.8 0 1.8 1.2 2.8 2.6 2.8 1.3 0 2-.8 2.3-1.7l1.2.4c-.3 1.3-1.5 2.6-3.5 2.6-2.2 0-4.1-1.5-4.1-4.1zm13.7 3.9v-3.3h-3.6v3.3h-1.3v-7.7h1.3v3.2h3.6v-3.2h1.3v7.7h-1.3zm8.3 0L83.8 66v5.9h-1.3v-7.7h1.7l3.5 5.5v-5.5H89v7.7h-1.4zm6.7-7.9c2 0 3.9 1.5 3.9 4s-1.9 4-3.9 4-3.9-1.5-3.9-4 1.9-4 3.9-4zm0 6.8c1.3 0 2.6-.9 2.6-2.8s-1.3-2.8-2.6-2.8-2.6.9-2.6 2.8 1.3 2.8 2.6 2.8zm5.3 1.1v-7.7h1.3v6.5h3.5v1.2h-4.8zm9.2-7.9c2 0 3.9 1.5 3.9 4s-1.9 4-3.9 4-3.9-1.5-3.9-4 1.9-4 3.9-4zm0 6.8c1.3 0 2.6-.9 2.6-2.8s-1.3-2.8-2.6-2.8-2.6.9-2.6 2.8 1.3 2.8 2.6 2.8zm11.1 1.1l-.1-1c-.3.6-1.1 1.1-2.4 1.1-2 0-3.8-1.5-3.8-4s1.9-4 3.9-4c1.9 0 3.1 1.1 3.5 2.4l-1.2.5c-.3-.9-1-1.6-2.3-1.6-1.3 0-2.6.9-2.6 2.8s1.2 2.8 2.5 2.8c1.6 0 2.1-1.1 2.2-1.7h-2.5V68h3.8v3.9h-1zm1.5-7.7h1.5l1.9 3.2 1.9-3.2h1.5l-2.7 4.5V72h-1.3v-3.3l-2.8-4.5zm10 3.8c0-2.5 1.9-4 3.9-4s3.1 1.2 3.5 2.5l-1.2.4c-.2-.9-.9-1.7-2.2-1.7-1.3 0-2.5.9-2.5 2.8 0 1.8 1.2 2.8 2.6 2.8 1.3 0 2-.8 2.3-1.7l1.2.4c-.3 1.3-1.5 2.6-3.5 2.6-2.3 0-4.1-1.5-4.1-4.1zm8.7 3.9v-7.7h4.8v1.2h-3.5v2h3.1v1.2h-3.1v2h3.5v1.2h-4.8v.1zm11.5 0l-3.8-5.9v5.9h-1.3v-7.7h1.7l3.5 5.5v-5.5h1.3v7.7h-1.4zm6.2-6.5v6.5h-1.3v-6.5H154v-1.2h6.3v1.2h-2.5zm5.9 3.4h-1v3.1h-1.3v-7.7h3c1.5 0 2.4 1 2.4 2.3 0 1.1-.7 1.9-1.7 2.2l1.7 3.2h-1.5l-1.6-3.1zm.4-1.1c.8 0 1.3-.5 1.3-1.2s-.5-1.2-1.3-1.2h-1.4v2.4h1.4zm4.1 4.2v-7.7h4.8v1.2h-3.5v2h3.1v1.2h-3.1v2h3.5v1.2h-4.8v.1zM181 71c-.6.6-1.3 1.1-2.1 1.1-1.5 0-2.3-1-2.3-2s.5-1.5 1.3-2.1l.1-.1-.1-.1c-.4-.4-.9-1-.9-1.7 0-1.3 1.1-2 2.1-2 1.2 0 2.1.8 2.1 1.9 0 .8-.5 1.3-1.1 1.7l-.3.3 1.3 1.3 1.8-2v1.6l-1.1 1.2 1.7 1.8h-1.7l-.8-.9zm-.8-.8l-1.4-1.5-.3.2c-.4.3-.6.6-.6 1.1 0 .5.4 1 1 1 .6-.1.9-.4 1.3-.8zm-1.4-3.3l.2.2.4-.3c.4-.3.5-.6.5-.9 0-.5-.4-.8-.9-.8-.4 0-.8.3-.8.8.1.4.3.7.6 1zm13.1 5l-3.8-5.9v5.9h-1.3v-7.7h1.7l3.5 5.5v-5.5h1.3v7.7h-1.4zm3.2 0v-7.7h4.8v1.2h-3.5v2h3.1v1.2h-3.1v2h3.5v1.2h-4.8v.1zm9.5-6.5v6.5h-1.3v-6.5h-2.5v-1.2h6.3v1.2h-2.5zm12.5-1.2h1.4l-2.2 7.7h-1.4l-1.9-5.8-1.9 5.8h-1.3l-2.2-7.7h1.4l1.5 5.6 1.8-5.6h1.4l1.8 5.7 1.6-5.7zm5.6-.2c2 0 3.9 1.5 3.9 4s-1.9 4-3.9 4-3.9-1.5-3.9-4 1.9-4 3.9-4zm0 6.8c1.3 0 2.6-.9 2.6-2.8s-1.3-2.8-2.6-2.8-2.6.9-2.6 2.8 1.3 2.8 2.6 2.8zm7.6-2h-1v3.1H228v-7.7h3c1.5 0 2.4 1 2.4 2.3 0 1.1-.7 1.9-1.7 2.2l1.7 3.2h-1.5l-1.6-3.1zm.4-1.1c.8 0 1.3-.5 1.3-1.2s-.5-1.2-1.3-1.2h-1.4v2.4h1.4zm6.4.8l-1 1.1v2.2h-1.3v-7.7h1.3v3.7l3.3-3.7h1.7l-3.1 3.4 3.2 4.3h-1.6l-2.5-3.3z" fill="#697D81"/></g></svg>