<?xml version="1.0" encoding="utf-8"?>
<!-- Generator: Adobe Illustrator 16.0.0, SVG Export Plug-In . SVG Version: 6.00 Build 0)  -->
<!DOCTYPE svg PUBLIC "-//W3C//DTD SVG 1.1//EN" "http://www.w3.org/Graphics/SVG/1.1/DTD/svg11.dtd">
<svg version="1.1" id="Layer_1" xmlns="http://www.w3.org/2000/svg" xmlns:xlink="http://www.w3.org/1999/xlink" x="0px" y="0px"
	 width="300px" height="64px" viewBox="0 0 300 64" enable-background="new 0 0 300 64" xml:space="preserve">
<g>
	<g>
		<defs>
			<path id="SVGID_1_" d="M36.423,51.015c3.852-0.047,7.504-0.609,10.737-1.697c0.814-0.272,1.589-0.576,2.326-0.905
				c-0.898,2.198-2.222,4.029-3.942,5.393c-3.398,2.503-7.409,4.218-11.763,4.876C34.872,56.796,35.75,54.14,36.423,51.015
				 M18.308,56.354c-0.081-0.066-0.167-0.127-0.264-0.175c-1.516-0.736-2.127-4.113-1.338-9.276c2.909,1.309,6.08,2.344,9.41,3.057
				c2.524,0.539,5.039,0.872,7.497,1c-1.206,5.242-2.751,7.991-3.774,7.991c-0.066,0-0.129,0.012-0.191,0.02
				C25.588,58.945,21.744,58.011,18.308,56.354 M4.248,39.664c-0.232-0.886-0.378-1.789-0.438-2.706
				c0.91,1.295,2.02,2.562,3.341,3.782c1.996,1.844,4.364,3.492,7.002,4.906c-0.539,3.015-0.691,5.746-0.35,7.949
				C9.255,50.154,5.851,45.286,4.248,39.664 M38.141,32.342c0-1.064-0.016-2.133-0.046-3.2c3.391-0.225,6.533-1.106,9.104-2.586
				c2.38,4.711,3.659,9.68,3.647,14.372c-0.003,1.358-0.119,2.651-0.335,3.871c-1.225,0.75-2.634,1.4-4.221,1.936
				c-2.815,0.946-5.988,1.464-9.35,1.552C37.751,43.437,38.141,37.811,38.141,32.342 M26.685,47.295
				c-3.377-0.725-6.568-1.797-9.458-3.153c0.948-4.27,2.715-9.441,5.517-15.184c0.406-0.832,0.821-1.649,1.246-2.452
				c1.958,0.879,4.088,1.577,6.323,2.054c1.697,0.364,3.394,0.562,5.057,0.619c0.03,1.022,0.044,2.078,0.044,3.164
				c0,6.421-0.514,11.751-1.254,15.915C31.721,48.151,29.21,47.832,26.685,47.295 M9.003,38.739
				c-2.316-2.141-3.908-4.407-4.72-6.657c0.642-2.523,1.886-5.053,3.718-7.478c1.738-2.301,3.896-4.372,6.376-6.151
				c0.714,1.292,1.716,2.553,2.99,3.749c1.212,1.135,2.625,2.164,4.192,3.064c-0.432,0.818-0.854,1.65-1.266,2.495
				c-2.419,4.957-4.394,10.275-5.554,15.101C12.589,41.649,10.653,40.266,9.003,38.739 M36.289,13.401
				c3.101,2.308,5.942,5.284,8.319,8.767c0.45,0.661,0.875,1.333,1.279,2.009c-2.179,1.259-4.933,2.011-7.905,2.223
				C37.73,21.695,37.173,17.168,36.289,13.401 M30.883,25.893c-1.974-0.421-3.85-1.026-5.576-1.785
				c2.543-4.45,5.327-8.32,8.071-11.197c0.858,3.374,1.578,7.911,1.88,13.536C33.814,26.388,32.343,26.206,30.883,25.893
				 M19.232,20.21c-1.129-1.055-1.985-2.156-2.562-3.261c2.556-1.538,5.382-2.79,8.395-3.695c1.791-0.538,3.605-0.938,5.413-1.215
				c-2.611,2.926-5.218,6.642-7.606,10.839C21.507,22.088,20.282,21.195,19.232,20.21 M13.367,11.522
				c-0.038,0.139-0.078,0.278-0.106,0.422c-0.276,1.286-0.245,2.603,0.081,3.911c-2.934,2.024-5.485,4.417-7.516,7.106
				c-0.62,0.818-1.174,1.653-1.675,2.495C5.66,19.873,8.947,15.015,13.367,11.522 M15.926,12.514
				c0.302-1.414,1.152-2.679,2.468-3.724c3.183-0.95,6.885-0.722,10.777,0.704c-1.638,0.285-3.275,0.662-4.892,1.149
				c-3.008,0.903-5.845,2.136-8.444,3.636C15.776,13.682,15.804,13.09,15.926,12.514 M38.046,8.921
				c0.936-0.606,1.797-1.021,2.518-1.193c1.367,0.549,2.723,1.248,4.008,2.132C42.51,9.347,40.316,9.032,38.046,8.921 M33.454,6.002
				c1.107,0.123,2.286,0.313,3.499,0.597c-0.76,0.407-1.547,0.918-2.348,1.53C34.249,7.324,33.865,6.614,33.454,6.002 M30.499,7.073
				c-1.233-0.473-2.453-0.838-3.654-1.1c0.963-0.107,1.939-0.168,2.931-0.169c0.464,0.006,1.034,0.563,1.631,1.643
				C31.105,7.317,30.802,7.189,30.499,7.073 M0.5,32.39c0,2.785,0.4,5.479,1.129,8.035c0.044,0.172,0.085,0.343,0.136,0.515
				c0.01,0.033,0.025,0.062,0.038,0.095C5.501,52.99,16.659,61.702,29.814,61.702c6.085,0,11.743-1.863,16.434-5.05
				c0.046-0.025,0.093-0.053,0.138-0.08c0.278-0.19,0.548-0.389,0.809-0.598c5.395-3.986,9.377-9.771,11.054-16.466
				c0.094-0.308,0.177-0.621,0.245-0.938c0.016-0.074,0.021-0.148,0.025-0.222c0.398-1.926,0.609-3.921,0.609-5.959
				c0-3.957-0.774-7.797-2.303-11.41c-0.293-0.693-1.093-1.018-1.786-0.724c-0.694,0.292-1.019,1.093-0.726,1.786
				c1.386,3.276,2.088,6.758,2.088,10.349c0,2.199-0.273,4.337-0.78,6.383c-0.402,1.291-1.111,2.486-2.087,3.568
				c0.023-0.463,0.04-0.931,0.04-1.407c0.012-5.23-1.436-10.754-4.118-15.947c1.966-1.689,3.22-3.775,3.652-6.11
				c0.138-0.74-0.353-1.451-1.093-1.587c-0.74-0.139-1.452,0.352-1.588,1.093c-0.286,1.543-1.086,2.958-2.341,4.163
				c-0.39-0.645-0.794-1.284-1.225-1.913c-2.393-3.508-5.237-6.544-8.348-8.965c4.107,0.27,7.904,1.266,10.962,2.974
				c0.479,0.273,1.117,0.265,1.564-0.109c0.58-0.48,0.656-1.342,0.174-1.922c-4.393-6.146-11.99-9.533-21.398-9.533
				C13.651,3.076,0.5,16.227,0.5,32.39"/>
		</defs>
		<clipPath id="SVGID_2_">
			<use xlink:href="#SVGID_1_"  overflow="visible"/>
		</clipPath>
		
			<radialGradient id="SVGID_3_" cx="-154.2095" cy="424.3965" r="0.8005" gradientTransform="matrix(60.7425 0 0 -60.7427 9423.5938 25793)" gradientUnits="userSpaceOnUse">
			<stop  offset="0" style="stop-color:#FFFFFF"/>
			<stop  offset="0.0598" style="stop-color:#E7F6FD"/>
			<stop  offset="0.1829" style="stop-color:#AFE2FA"/>
			<stop  offset="0.3589" style="stop-color:#37C6F4"/>
			<stop  offset="0.544" style="stop-color:#00AEEF"/>
			<stop  offset="1" style="stop-color:#002F54"/>
		</radialGradient>
		<rect x="0.5" y="3.076" clip-path="url(#SVGID_2_)" fill="url(#SVGID_3_)" width="58.627" height="58.626"/>
	</g>
	<path fill="#002F54" d="M292.778,23.819c4.334,0,6.722,2.097,6.722,5.905c0,3.594-2.352,5.738-6.289,5.738h-2.758v5.496h-3.652
		v-17.14H292.778z M290.453,32.483h2.182c2.116,0,3.189-0.927,3.189-2.758c0-1.855-1.175-2.877-3.309-2.877h-2.062V32.483z
		 M280.082,34.093c0,2.518-0.965,3.741-2.949,3.741c-2.007,0-3.021-1.259-3.021-3.741V23.819h-3.652v10.032
		c-0.012,2.453,0.601,4.315,1.818,5.538c1.131,1.137,2.765,1.713,4.855,1.713c3.012,0,6.601-1.258,6.601-7.249V23.819h-3.651V34.093
		z M260.502,23.676c3.702,0,7.657,2.294,7.657,8.737c0,6.406-3.955,8.689-7.657,8.689c-3.713,0-7.682-2.283-7.682-8.689
		C252.82,25.97,256.789,23.676,260.502,23.676 M260.502,37.906c1.452,0,3.886-0.712,3.886-5.493c0-4.781-2.434-5.494-3.886-5.494
		c-2.521,0-3.909,1.951-3.909,5.494S257.98,37.906,260.502,37.906 M249.054,35.763c0.604,1.227,1.124,2.288,2.329,2.288h0.867v2.82
		l-0.125,0.033c-0.026,0.008-0.66,0.175-1.772,0.175c-2.884,0-3.768-1.985-4.549-3.735c-0.64-1.435-1.193-2.673-2.7-2.673h-1.605
		v6.288h-3.651v-17.14h6.073c4.439,0,6.507,1.731,6.507,5.448c0,2.301-1.381,3.72-2.759,4.329
		C248.276,34.185,248.67,34.984,249.054,35.763 M241.498,31.836h2.038c2.027,0,3.286-0.947,3.286-2.47
		c0-1.601-1.101-2.518-3.021-2.518h-2.303V31.836z M228.129,34.694h3.769v0.19c0,1.112-0.394,2.973-3.022,2.973
		c-2.479,0-3.957-2.036-3.957-5.444c0-3.491,1.416-5.494,3.884-5.494c2.938,0,3.044,2.971,3.046,3.099l0.006,0.193l3.406-0.531
		v-0.146c0-1.237-1.102-5.857-6.505-5.857c-4.837,0-7.61,3.184-7.61,8.737c0,5.44,2.863,8.689,7.657,8.689
		c4.82,0,6.531-3.361,6.531-6.24v-2.978h-7.204V34.694z M217.196,23.819h-4.34l-5.673,7.715v-7.715h-3.699v17.14h3.699v-7.886
		l5.815,7.886h4.391l-6.634-8.643L217.196,23.819z M196.551,34.406l-5.995-10.587h-3.701v17.14h3.652V30.736l5.972,10.223h3.723
		v-17.14h-3.65V34.406z M179.627,23.931l6.25,17.028h-3.796l-1.464-4.199h-5.709l-1.416,4.199h-3.822l6.293-17.14h3.622
		L179.627,23.931z M177.764,28.493l-1.852,5.405h3.745L177.764,28.493z M166.278,31.925c1.318,0.379,3.04,1.583,3.04,4.159
		c0,3.098-2.197,4.875-6.026,4.875h-7.226v-17.14h6.53c3.711,0,5.595,1.551,5.595,4.609
		C168.191,30.796,167.112,31.632,166.278,31.925 M162.212,30.828c1.522,0,2.231-0.64,2.231-2.015c0-1.304-0.904-1.965-2.687-1.965
		h-2.038v3.98H162.212z M159.719,37.932h2.854c1.866,0,2.733-0.703,2.733-2.205c0-1.844-1.524-2.231-2.806-2.231h-2.781V37.932z
		 M141.023,23.819c5.335,0,8.521,3.311,8.521,8.858c0,5.262-2.843,8.281-7.801,8.281h-5.811v-17.14H141.023z M139.584,37.932h2.135
		c2.628,0,4.198-1.983,4.198-5.303c0-3.836-1.664-5.781-4.943-5.781h-1.39V37.932z M126.819,23.819h-3.652v17.14h11.067v-3.027
		h-7.415V23.819z M118.247,35.763c0.604,1.227,1.125,2.288,2.332,2.288h0.866v2.82l-0.126,0.033
		c-0.026,0.008-0.658,0.175-1.771,0.175c-2.883,0-3.769-1.985-4.549-3.735c-0.64-1.435-1.193-2.673-2.699-2.673h-1.607v6.288h-3.651
		v-17.14h6.074c4.438,0,6.506,1.731,6.506,5.448c0,2.301-1.38,3.72-2.758,4.329C117.472,34.185,117.866,34.984,118.247,35.763
		 M110.692,31.836h2.039c2.026,0,3.285-0.947,3.285-2.47c0-1.601-1.102-2.518-3.022-2.518h-2.302V31.836z M97.3,23.676
		c3.703,0,7.659,2.294,7.659,8.737c0,6.406-3.956,8.689-7.659,8.689c-3.713,0-7.68-2.283-7.68-8.689
		C89.62,25.97,93.587,23.676,97.3,23.676 M97.3,37.906c1.452,0,3.886-0.712,3.886-5.493c0-4.781-2.434-5.494-3.886-5.494
		c-2.521,0-3.909,1.951-3.909,5.494S94.779,37.906,97.3,37.906 M84.977,23.819h4.128l-4.921,17.14h-4.122L77.071,30.21
		l-3.039,10.749h-4.12l-4.922-17.14h4.25l2.879,12.509l3.456-12.509h3.068l3.34,12.509L84.977,23.819z"/>
</g>
</svg>
